<?xml version="1.0" encoding="utf-8"?>
<!-- Generator: Adobe Illustrator 26.5.0, SVG Export Plug-In . SVG Version: 6.00 Build 0)  -->
<svg version="1.1" id="Layer_1" xmlns="http://www.w3.org/2000/svg" xmlns:xlink="http://www.w3.org/1999/xlink" x="0px" y="0px"
	 viewBox="0 0 500 250" style="enable-background:new 0 0 500 250;" xml:space="preserve">
<style type="text/css">
	.st0{fill:#FFFFFF;}
	.st1{fill:#3AAF61;}
	.st2{fill:#1F64AD;}
</style>
<g>
	<g>
		<path class="st1" d="M71.6,163.2h41.7v10.3H81.9v18.1h25.8v10.3H81.9v11.3h31.4v10.3H71.6V163.2z"/>
		<path class="st1" d="M119.5,163.2h21c4.2,0,8.1,0.8,11.8,2.5c3.6,1.7,6.8,3.9,9.5,6.7c2.7,2.8,4.8,6.1,6.4,9.9
			c1.6,3.8,2.4,7.7,2.4,11.8c0,4.1-0.8,8-2.4,11.6c-1.6,3.6-3.7,6.7-6.4,9.3c-2.7,2.6-5.9,4.7-9.5,6.2c-3.6,1.5-7.6,2.2-11.8,2.2
			h-21V163.2z M140.5,213.1c2.8,0,5.3-0.5,7.7-1.4c2.4-0.9,4.5-2.3,6.3-4c1.8-1.7,3.2-3.7,4.3-6c1-2.3,1.6-4.9,1.6-7.6
			c0-2.7-0.5-5.3-1.6-7.8c-1-2.5-2.5-4.7-4.3-6.6c-1.8-1.9-3.9-3.4-6.3-4.5c-2.4-1.1-5-1.7-7.7-1.7h-10.7v39.6H140.5z"/>
		<path class="st1" d="M186.8,204.5c0,1.5,0.3,2.9,0.8,4.1c0.5,1.3,1.3,2.4,2.2,3.3c0.9,0.9,2.1,1.7,3.3,2.2
			c1.3,0.5,2.6,0.8,4.1,0.8c1.5,0,2.9-0.3,4.2-0.8c1.3-0.5,2.4-1.3,3.4-2.2c0.9-0.9,1.7-2.1,2.2-3.3c0.5-1.3,0.8-2.6,0.8-4.1v-41.3
			h10.3v41.3c0,2.9-0.5,5.7-1.6,8.2c-1.1,2.5-2.5,4.7-4.4,6.6c-1.9,1.9-4.1,3.4-6.7,4.4s-5.3,1.6-8.2,1.6c-2.9,0-5.7-0.5-8.2-1.6
			s-4.7-2.5-6.6-4.4c-1.9-1.9-3.4-4.1-4.4-6.6c-1.1-2.5-1.6-5.3-1.6-8.2v-41.3h10.3V204.5z"/>
		<path class="st2" d="M257.6,206.8c0-1.5-0.4-2.9-1.2-4c-0.8-1.1-1.8-2.1-3.1-2.9c-1.3-0.8-2.7-1.5-4.3-2.2c-1.6-0.6-3.3-1.3-5-1.9
			c-2.1-0.7-4.6-1.6-7.5-2.8c-3-1.2-5.4-2.8-7.4-4.9c-2-2.1-3.2-4.6-3.7-7.6c-0.3-2.6,0.1-5,1.1-7.4c1-2.3,2.5-4.4,4.5-6.2
			c2-1.8,4.2-3.2,6.9-4.2c2.6-1,5.4-1.5,8.4-1.5c3.7,0,6.8,0.7,9.3,2c2.6,1.4,4.7,3,6.3,4.9c1.6,1.9,2.8,3.9,3.6,6
			c0.8,2.1,1.2,3.9,1.2,5.3h-10.5c-0.6-2.6-1.7-4.6-3.2-6c-1.6-1.4-3.9-2.2-6.8-2.3c-1.7-0.1-3.3,0.2-4.7,0.6
			c-1.4,0.5-2.5,1.1-3.4,2c-0.9,0.8-1.6,1.8-1.9,2.8c-0.4,1.1-0.4,2.1-0.2,3.2c0.2,0.9,0.6,1.6,1.3,2.2c0.7,0.6,1.6,1.2,2.6,1.7
			c1,0.5,2.2,1,3.5,1.5c1.3,0.5,2.7,0.9,4.1,1.4c2.4,0.8,4.8,1.7,7.3,2.6c2.4,0.9,4.6,2.2,6.6,3.7c2,1.5,3.5,3.4,4.8,5.6
			c1.2,2.2,1.9,5.1,1.9,8.4c0,2.9-0.6,5.5-1.8,7.8c-1.2,2.3-2.8,4.2-4.8,5.8c-2,1.6-4.3,2.7-6.9,3.6c-2.6,0.8-5.3,1.2-8.1,1.2
			c-2.9,0-5.7-0.5-8.4-1.6c-2.7-1-5.2-2.6-7.3-4.6c-2.1-2-3.8-4.4-5.1-7.3c-1.3-2.9-1.8-6.2-1.7-9.9h10.3c0,1.8,0.3,3.5,0.8,5.1
			c0.5,1.6,1.3,3.1,2.4,4.3c1,1.2,2.3,2.2,3.8,2.9c1.5,0.7,3.2,1.1,5.1,1.1c3.4,0,6.2-0.7,8.3-2.2
			C256.6,211.7,257.6,209.6,257.6,206.8z"/>
		<path class="st2" d="M273.6,163.2h10.3v60.3h-10.3V163.2z"/>
		<path class="st2" d="M290.5,163.2h19c3.1,0.1,5.9,0.5,8.5,1.3c2.6,0.8,4.7,2.1,6.5,3.7c1.8,1.6,3.2,3.6,4.1,6
			c1,2.4,1.5,5.1,1.5,8.2c0,3.2-0.6,6.1-1.8,8.8c-1.2,2.7-2.9,4.7-5.1,5.9c0.7,0.3,1.4,0.7,2.3,1.2c0.8,0.5,1.6,1.2,2.3,2.1
			c0.7,0.9,1.2,2.1,1.7,3.7c0.4,1.5,0.6,3.5,0.6,5.8v13.7h-10.3v-13.7c0-1.6-0.3-2.8-0.8-3.8c-0.5-1-1.3-1.8-2.1-2.4
			c-0.9-0.6-1.9-1-3-1.3c-1.1-0.3-2.3-0.4-3.4-0.4h-9.5v21.6h-10.3V163.2z M320,182.3c0-3.2-1-5.6-3-7.1c-2-1.5-4.5-2.2-7.4-2.2
			h-8.7v18.9h8.7c3.3-0.1,5.9-0.8,7.7-2.3C319.1,188,320,185.6,320,182.3z"/>
		<path class="st2" d="M336.8,163.2h41.7v10.3h-31.4v18.1H373v10.3h-25.8v11.3h31.4v10.3h-41.7V163.2z"/>
		<path class="st2" d="M418.2,206.8c0-1.5-0.4-2.9-1.2-4c-0.8-1.1-1.8-2.1-3.1-2.9c-1.3-0.8-2.7-1.5-4.3-2.2c-1.6-0.6-3.3-1.3-5-1.9
			c-2.1-0.7-4.6-1.6-7.5-2.8c-3-1.2-5.4-2.8-7.4-4.9c-2-2.1-3.2-4.6-3.7-7.6c-0.3-2.6,0.1-5,1.1-7.4c1-2.3,2.5-4.4,4.5-6.2
			c2-1.8,4.2-3.2,6.9-4.2c2.6-1,5.4-1.5,8.4-1.5c3.7,0,6.8,0.7,9.3,2c2.6,1.4,4.7,3,6.3,4.9c1.6,1.9,2.8,3.9,3.6,6
			c0.8,2.1,1.2,3.9,1.2,5.3h-10.5c-0.6-2.6-1.7-4.6-3.2-6c-1.6-1.4-3.9-2.2-6.8-2.3c-1.7-0.1-3.3,0.2-4.7,0.6
			c-1.4,0.5-2.5,1.1-3.4,2c-0.9,0.8-1.6,1.8-1.9,2.8c-0.4,1.1-0.4,2.1-0.2,3.2c0.2,0.9,0.6,1.6,1.3,2.2c0.7,0.6,1.6,1.2,2.6,1.7
			c1,0.5,2.2,1,3.5,1.5c1.3,0.5,2.7,0.9,4.1,1.4c2.4,0.8,4.8,1.7,7.3,2.6c2.4,0.9,4.6,2.2,6.6,3.7c2,1.5,3.5,3.4,4.8,5.6
			c1.2,2.2,1.9,5.1,1.9,8.4c0,2.9-0.6,5.5-1.8,7.8c-1.2,2.3-2.8,4.2-4.8,5.8c-2,1.6-4.3,2.7-6.9,3.6c-2.6,0.8-5.3,1.2-8.1,1.2
			c-2.9,0-5.7-0.5-8.4-1.6c-2.7-1-5.2-2.6-7.3-4.6c-2.1-2-3.8-4.4-5.1-7.3c-1.3-2.9-1.8-6.2-1.7-9.9h10.3c0,1.8,0.3,3.5,0.8,5.1
			c0.5,1.6,1.3,3.1,2.4,4.3c1,1.2,2.3,2.2,3.8,2.9c1.5,0.7,3.2,1.1,5.1,1.1c3.4,0,6.2-0.7,8.3-2.2
			C417.1,211.7,418.2,209.6,418.2,206.8z"/>
	</g>
	<g>
		<g>
			<path class="st1" d="M277.8,121.4l-10.2,4.6l-16.6,7.5c-0.9,0.4-1.9,0.4-2.7,0l-15.3-6.7v9.8l5.6,2.4l10.2,4.5
				c0.9,0.4,1.9,0.4,2.7,0l9.7-4.4l18-8.1l10.2-4.6l8.4-3.8v-10.3l-6.5,2.9L277.8,121.4z"/>
		</g>
		<g>
			<path class="st1" d="M251.9,108.9c-0.9,0.4-1.9,0.4-2.7,0l-11.9-5.2l-4.4-1.9l-8.3-3.6l-12.2-5.3l-4.9-2.1l-2-0.9v9l0,0l0,0v25.7
				l7.1-2.3l3-1l0.5-0.2l2.1,2.9l5,6.9l1.3,1.8v-25.6l2.5,1.1l5.8,2.6l7.4,3.2l9,3.9c0.9,0.4,1.9,0.4,2.7,0l8.9-4l13.5-6.1
				l23.3-10.5v-9.2L264,103.4L251.9,108.9z"/>
		</g>
		<g>
			<path class="st2" d="M365.8,133.8c-0.9-1.3-2.1-2.4-2.9-3.7c-0.9-1.6-1.6-3.4-2.2-4.8c0,9.7-10.1,14.6-18.1,8.4
				c0.2,0.2,0.3,0.4,0.3,0.5c1.7,2.2,2.9,4.6,3.2,7.3c0.2,1.7,0.9,3.2,1.8,4.6c3.3,4.9,10.2,6.2,15,2.9
				C367.9,145.5,369.2,138.7,365.8,133.8z"/>
		</g>
		<g>
			<path class="st2" d="M354,134.9c-1-2-1.9-4-2.9-5.9c-1.5,0.2-2.4-0.4-3-1.8c-0.3-0.8-0.7-1.5-1.1-2.3c-0.5-1-0.4-1.9,0.2-2.7
				c0.1-0.2,0.3-0.5,0.2-0.7c-0.4-0.9-0.9-1.8-1.3-2.8l0.7-0.3c0.5,1.1,1,2.1,1.5,3.2c1.4-0.2,2.4,0.4,2.9,1.7c0.3,0.7,0.6,1.4,1,2
				c0.7,1.3,0.6,2.4-0.4,3.4c0.9,2,1.9,3.9,2.9,5.9c0.5-0.3,0.8-0.5,1.2-0.7c3.5-2.8,4.9-7.5,3.6-12.2c-0.6-2-1.5-3.6-3.5-4.4
				c-2.9-1.2-5.6-0.6-8.3,0.6l0.8-0.4c-1.9-4.1-4.6-9.6-10.6-10.2c-5.8-0.5-8.4,3.5-10.5,6.6c-2,2.9-3.6,5.4-7.2,5.4
				c-2.8,0-5.2-1-7.1-3.1c-2.5-2.7-5.2-8.4-5.2-20.5V72l8.6-3.8l14.2-6.4c0.4-0.2,0.6-0.6,0.6-1c0-0.4-0.2-0.8-0.6-1l-14.2-6.2
				l-3.4-1.5l-15.2-6.6l-47.1-20.5c-0.9-0.4-1.9-0.4-2.7,0l-15,6.8l-35.5,16l-4.5,2l0,0l-3.2,1.4l-4.7,2.1l-0.2,0.1l-2.7,1.2
				l-3.7,1.7l-8.9,4c-0.4,0.2-0.6,0.6-0.6,0.9c0,0.4,0.2,0.8,0.6,0.9l14.4,6.3c0.6,0.2,0.9,0.8,0.9,1.4v44.9c0,0.5,0.3,1,0.8,1.2
				l7.3,3.2l4.5,1.9v-9.8l-3.7-1.6c-0.5-0.2-0.8-0.7-0.8-1.2v-35c0-0.5,0.5-0.9,1-0.7l55.5,24.2c0.9,0.4,1.9,0.4,2.7,0l42.6-19.2
				c1.1-2.7,1.6-5.3,1.1-7.8c-0.7-3.8-3.6-6.5-8.4-8.2c-1.7-0.6-3.5-1-5.5-1.3c-0.2,0.1-0.3,0-0.5,0c0.4,0.2,0.9,0.3,1.3,0.5
				c7.6,3,9.6,8.2,7.7,15c-1-0.7-2-1.2-3.3-1.5c-2.3-0.6-4.8-0.8-7.4-1c-3.6-0.3-7.2-0.7-10.3-1.8c-5.5-1.8-8.2-5.1-8.5-9.5
				c-0.2-3.7,1.2-7.6,3.4-11.5c1.2-2.2,2.7-4.4,4.5-6.5c0.2-0.1,0.2-0.3,0.5-0.3c0.4,1.7,1.9,2.8,3.7,3.8c3.1,1.6,6.8,2.7,10.5,3.7
				c4.2,1.1,8.5,2.1,12.9,3.1c3.3,0.7,6.1,1.8,8.1,3.7c2.6,2.4,2.8,5.5,1.3,9c-1.1,2.5-1.6,2.9-1.6,6.4v29.1
				c0.5,5.2,1.6,9.4,3.3,12.7c0.7,1.4,1.6,2.6,2.5,3.7c2.6,2.8,5.9,4.2,9.8,4.2c0,0,0,0,0,0c5.5,0,8.2-3.9,10.2-7
				c2.2-3.3,3.8-5.4,7.2-5c3.7,0.3,5.6,3.7,7.7,8.1l0.8-0.4c-2.4,1.2-4.5,2.7-5.8,5.1c-1.1,2-1.1,4,0.1,5.9c1.8,2.9,4.4,5,7.8,5.8
				C350,135.9,352,135.8,354,134.9z"/>
		</g>
		<g>
			<path class="st1" d="M350.1,122.8c-0.4-0.7-1.2-0.9-1.9-0.6c-0.7,0.4-1.1,1.1-0.8,1.9c0.2,0.6,0.5,1.1,0.8,1.7
				c0.3,0.6,0.5,1.2,0.9,1.7c0.4,0.7,1.2,0.9,1.9,0.6c0.7-0.4,1.1-1.1,0.7-1.9C351.3,125.1,350.7,123.9,350.1,122.8z"/>
		</g>
	</g>
</g>
</svg>
