<?xml version="1.0" encoding="utf-8"?>
<!-- Generator: Adobe Illustrator 26.5.0, SVG Export Plug-In . SVG Version: 6.00 Build 0)  -->
<svg version="1.1" id="Layer_1" xmlns="http://www.w3.org/2000/svg" xmlns:xlink="http://www.w3.org/1999/xlink" x="0px" y="0px"
	 viewBox="0 0 250 250" style="enable-background:new 0 0 250 250;" xml:space="preserve">
<style type="text/css">
	.st0{fill:#FFFFFF;}
	.st1{fill:#3AAF61;}
	.st2{fill:#1F64AD;}
</style>
<g>
	<g>
		<g>
			<path class="st0" d="M132.4,151.2l-8,3.6l-13,5.8c-0.7,0.3-1.5,0.3-2.1,0l-11.9-5.2v7.6l4.3,1.9l8,3.5c0.7,0.3,1.5,0.3,2.1,0
				l7.5-3.4l14-6.3l8-3.6l6.5-2.9v-8l-5,2.3L132.4,151.2z"/>
		</g>
		<g>
			<path class="st0" d="M112.2,141.5c-0.7,0.3-1.4,0.3-2.1,0l-9.2-4l-3.4-1.5l-6.5-2.8l-9.5-4.1l-3.8-1.7l-1.6-0.7v7l0,0l0,0v20
				l5.5-1.8l2.4-0.8l0.4-0.1l1.6,2.2l3.9,5.4l1,1.4v-19.9l1.9,0.8l4.6,2l5.8,2.5l7,3.1c0.7,0.3,1.5,0.3,2.1,0l6.9-3.1l10.5-4.7
				l18.1-8.2v-7.2l-26.2,11.8L112.2,141.5z"/>
		</g>
		<g>
			<path class="st0" d="M200.9,160.9c-0.7-1-1.7-1.9-2.3-2.9c-0.7-1.3-1.2-2.6-1.7-3.7c0,7.5-7.9,11.4-14.1,6.5
				c0.1,0.2,0.2,0.3,0.3,0.4c1.3,1.7,2.2,3.5,2.5,5.7c0.2,1.3,0.7,2.5,1.4,3.6c2.6,3.8,7.9,4.9,11.7,2.2
				C202.6,170,203.6,164.7,200.9,160.9z"/>
		</g>
		<g>
			<path class="st0" d="M191.7,161.7c-0.8-1.6-1.5-3.1-2.3-4.6c-1.1,0.2-1.9-0.3-2.3-1.4c-0.2-0.6-0.6-1.2-0.9-1.8
				c-0.4-0.8-0.3-1.4,0.2-2.1c0.1-0.1,0.2-0.4,0.1-0.6c-0.3-0.7-0.7-1.4-1-2.2l0.5-0.3c0.4,0.8,0.8,1.7,1.2,2.5
				c1.1-0.1,1.8,0.3,2.3,1.3c0.2,0.5,0.5,1.1,0.8,1.6c0.6,1,0.5,1.9-0.3,2.7c0.7,1.5,1.5,3,2.2,4.6c0.4-0.2,0.6-0.4,0.9-0.6
				c2.7-2.1,3.8-5.9,2.8-9.5c-0.4-1.5-1.2-2.8-2.7-3.4c-2.3-0.9-4.4-0.4-6.5,0.5l0.6-0.3c-1.5-3.2-3.6-7.5-8.3-7.9
				c-4.5-0.4-6.5,2.7-8.2,5.2c-1.5,2.3-2.8,4.2-5.6,4.2c-2.2,0-4.1-0.8-5.5-2.4c-2-2.1-4.1-6.6-4.1-16v-18.5l6.7-3l11.1-5
				c0.3-0.2,0.5-0.5,0.5-0.8c0-0.3-0.2-0.6-0.5-0.8l-11.1-4.8l-2.6-1.2l-11.8-5.1l-36.6-16c-0.7-0.3-1.5-0.3-2.1,0l-11.7,5.3
				L69.8,93.8l-3.5,1.6l0,0l-2.5,1.1l-3.7,1.7L60,98.3l-2.1,0.9l-2.9,1.3l-7,3.1c-0.3,0.1-0.5,0.4-0.5,0.7c0,0.3,0.2,0.6,0.5,0.7
				l11.2,4.9c0.4,0.2,0.7,0.6,0.7,1.1v35c0,0.4,0.2,0.8,0.6,1l5.7,2.5l3.5,1.5v-7.6l-2.9-1.3c-0.4-0.2-0.6-0.6-0.6-1v-27.3
				c0-0.4,0.4-0.7,0.8-0.5l43.2,18.9c0.7,0.3,1.5,0.3,2.1,0l33.2-14.9c0.9-2.1,1.2-4.1,0.8-6.1c-0.6-3-2.8-5-6.6-6.3
				c-1.3-0.4-2.7-0.8-4.2-1c-0.2,0.1-0.3,0-0.4,0c0.3,0.1,0.7,0.2,1,0.4c5.9,2.3,7.5,6.4,6,11.7c-0.8-0.5-1.6-0.9-2.5-1.2
				c-1.8-0.5-3.8-0.6-5.8-0.8c-2.8-0.3-5.6-0.6-8-1.4c-4.3-1.4-6.4-3.9-6.6-7.4c-0.2-2.9,0.9-5.9,2.7-8.9c1-1.7,2.1-3.4,3.5-5.1
				c0.2-0.1,0.2-0.2,0.4-0.3c0.3,1.3,1.5,2.2,2.9,2.9c2.4,1.3,5.3,2.1,8.2,2.9c3.3,0.9,6.7,1.6,10,2.4c2.5,0.6,4.8,1.4,6.3,2.9
				c2,1.9,2.1,4.3,1,7c-0.8,2-1.2,2.3-1.2,5v22.6c0.4,4,1.3,7.3,2.6,9.9c0.6,1.1,1.2,2.1,2,2.9c2,2.2,4.6,3.3,7.6,3.3c0,0,0,0,0,0
				c4.3,0,6.3-3,8-5.5c1.7-2.6,2.9-4.2,5.6-3.9c2.9,0.3,4.3,2.9,6,6.3l0.6-0.3c-1.9,0.9-3.5,2.1-4.5,3.9c-0.8,1.5-0.9,3.1,0,4.6
				c1.4,2.3,3.4,3.9,6.1,4.5C188.6,162.5,190.1,162.4,191.7,161.7z"/>
		</g>
		<g>
			<path class="st0" d="M188.7,152.4c-0.3-0.6-0.9-0.7-1.5-0.4c-0.6,0.3-0.8,0.9-0.6,1.5c0.2,0.4,0.4,0.9,0.6,1.3
				c0.2,0.5,0.4,0.9,0.7,1.4c0.3,0.5,1,0.7,1.5,0.4c0.6-0.3,0.8-0.9,0.6-1.5C189.6,154.1,189.2,153.2,188.7,152.4z"/>
		</g>
	</g>
</g>
<g>
	<g>
		<path class="st1" d="M132.4,151.2l-8,3.6l-13,5.8c-0.7,0.3-1.5,0.3-2.1,0l-11.9-5.2v7.6l4.3,1.9l8,3.5c0.7,0.3,1.5,0.3,2.1,0
			l7.5-3.4l14-6.3l8-3.6l6.5-2.9v-8l-5,2.3L132.4,151.2z"/>
	</g>
	<g>
		<path class="st1" d="M112.2,141.5c-0.7,0.3-1.4,0.3-2.1,0l-9.2-4l-3.4-1.5l-6.5-2.8l-9.5-4.1l-3.8-1.7l-1.6-0.7v7l0,0l0,0v20
			l5.5-1.8l2.4-0.8l0.4-0.1l1.6,2.2l3.9,5.4l1,1.4v-19.9l1.9,0.8l4.6,2l5.8,2.5l7,3.1c0.7,0.3,1.5,0.3,2.1,0l6.9-3.1l10.5-4.7
			l18.1-8.2v-7.2l-26.2,11.8L112.2,141.5z"/>
	</g>
	<g>
		<path class="st2" d="M200.9,160.9c-0.7-1-1.7-1.9-2.3-2.9c-0.7-1.3-1.2-2.6-1.7-3.7c0,7.5-7.9,11.4-14.1,6.5
			c0.1,0.2,0.2,0.3,0.3,0.4c1.3,1.7,2.2,3.5,2.5,5.7c0.2,1.3,0.7,2.5,1.4,3.6c2.6,3.8,7.9,4.9,11.7,2.2
			C202.6,170,203.6,164.7,200.9,160.9z"/>
	</g>
	<g>
		<path class="st2" d="M191.7,161.7c-0.8-1.6-1.5-3.1-2.3-4.6c-1.1,0.2-1.9-0.3-2.3-1.4c-0.2-0.6-0.6-1.2-0.9-1.8
			c-0.4-0.8-0.3-1.4,0.2-2.1c0.1-0.1,0.2-0.4,0.1-0.6c-0.3-0.7-0.7-1.4-1-2.2l0.5-0.3c0.4,0.8,0.8,1.7,1.2,2.5
			c1.1-0.1,1.8,0.3,2.3,1.3c0.2,0.5,0.5,1.1,0.8,1.6c0.6,1,0.5,1.9-0.3,2.7c0.7,1.5,1.5,3,2.2,4.6c0.4-0.2,0.6-0.4,0.9-0.6
			c2.7-2.1,3.8-5.9,2.8-9.5c-0.4-1.5-1.2-2.8-2.7-3.4c-2.3-0.9-4.4-0.4-6.5,0.5l0.6-0.3c-1.5-3.2-3.6-7.5-8.3-7.9
			c-4.5-0.4-6.5,2.7-8.2,5.2c-1.5,2.3-2.8,4.2-5.6,4.2c-2.2,0-4.1-0.8-5.5-2.4c-2-2.1-4.1-6.6-4.1-16v-18.5l6.7-3l11.1-5
			c0.3-0.2,0.5-0.5,0.5-0.8c0-0.3-0.2-0.6-0.5-0.8l-11.1-4.8l-2.6-1.2l-11.8-5.1l-36.6-16c-0.7-0.3-1.5-0.3-2.1,0l-11.7,5.3
			L69.8,93.8l-3.5,1.6l0,0l-2.5,1.1l-3.7,1.7L60,98.3l-2.1,0.9l-2.9,1.3l-7,3.1c-0.3,0.1-0.5,0.4-0.5,0.7c0,0.3,0.2,0.6,0.5,0.7
			l11.2,4.9c0.4,0.2,0.7,0.6,0.7,1.1v35c0,0.4,0.2,0.8,0.6,1l5.7,2.5l3.5,1.5v-7.6l-2.9-1.3c-0.4-0.2-0.6-0.6-0.6-1v-27.3
			c0-0.4,0.4-0.7,0.8-0.5l43.2,18.9c0.7,0.3,1.5,0.3,2.1,0l33.2-14.9c0.9-2.1,1.2-4.1,0.8-6.1c-0.6-3-2.8-5-6.6-6.3
			c-1.3-0.4-2.7-0.8-4.2-1c-0.2,0.1-0.3,0-0.4,0c0.3,0.1,0.7,0.2,1,0.4c5.9,2.3,7.5,6.4,6,11.7c-0.8-0.5-1.6-0.9-2.5-1.2
			c-1.8-0.5-3.8-0.6-5.8-0.8c-2.8-0.3-5.6-0.6-8-1.4c-4.3-1.4-6.4-3.9-6.6-7.4c-0.2-2.9,0.9-5.9,2.7-8.9c1-1.7,2.1-3.4,3.5-5.1
			c0.2-0.1,0.2-0.2,0.4-0.3c0.3,1.3,1.5,2.2,2.9,2.9c2.4,1.3,5.3,2.1,8.2,2.9c3.3,0.9,6.7,1.6,10,2.4c2.5,0.6,4.8,1.4,6.3,2.9
			c2,1.9,2.1,4.3,1,7c-0.8,2-1.2,2.3-1.2,5v22.6c0.4,4,1.3,7.3,2.6,9.9c0.6,1.1,1.2,2.1,2,2.9c2,2.2,4.6,3.3,7.6,3.3c0,0,0,0,0,0
			c4.3,0,6.3-3,8-5.5c1.7-2.6,2.9-4.2,5.6-3.9c2.9,0.3,4.3,2.9,6,6.3l0.6-0.3c-1.9,0.9-3.5,2.1-4.5,3.9c-0.8,1.5-0.9,3.1,0,4.6
			c1.4,2.3,3.4,3.9,6.1,4.5C188.6,162.5,190.1,162.4,191.7,161.7z"/>
	</g>
	<g>
		<path class="st1" d="M188.7,152.4c-0.3-0.6-0.9-0.7-1.5-0.4c-0.6,0.3-0.8,0.9-0.6,1.5c0.2,0.4,0.4,0.9,0.6,1.3
			c0.2,0.5,0.4,0.9,0.7,1.4c0.3,0.5,1,0.7,1.5,0.4c0.6-0.3,0.8-0.9,0.6-1.5C189.6,154.1,189.2,153.2,188.7,152.4z"/>
	</g>
</g>
</svg>
